<svg width="200" height="283" version="1.1" viewBox="0 0 210 297" xml:space="preserve" xmlns="http://www.w3.org/2000/svg"><g transform="translate(.8 5)"><path d="m100 250c5-0.2 5 0.3 0 0zm6-6c1-0.4 0.3 0.5 0 0zm2-0.01c3-0.4 0.5 0.4 0 0zm0.8-2c1-0.4 0.3 0.5 0 0zm10-2c-8-1 7-5 9-8 4-2 12-14 7-3-3 5-9 11-15 11zm-4-0.9c0.3-1 0.9 1 0 0zm16-2c0.5-0.6 3-3 0.9-0.8zm-48-9c-0.9-1 1 1 0 0zm-25-0.4c-2-2 2 2 0 0zm-7-4c-9-2-15-9-20-16 6 6 16 5 20 12 0.8 2 5 6 0.5 4zm14-2c-8-6 4-6 8-5 7 6 0.9 8-6 7-0.7-0.7-1-1-2-2zm-32 0.6c-4-4 4 3 0 0zm115-2c0.3-7-8-15 2-16 1-4 9-18 2-12-5 4-12 12-16 2 8-6 16-11 22-18 2-7 2-13 2-20 4-3 9-13 8-2 0.6 4-2 19 3 9 8-10 12-23 13-36 3 8 6 18 2 27 3 8 4 18 1 26-2 9-7 17-15 22-5 4-11 7-16 11-1 2-7 15-8 9zm14-21c12-7 21-21 19-35-0.6-5-6 8-9 10-8 5-8 14-11 22-0.5 2-2 6 1 3zm-73 21c-10-9 10-8 15-11 8-0.5 18-14 23-4-2 6-15 8-21 11-5 1-11 4-17 4zm48-0.05c0.2-1 0.3 1 0 0zm34-0.5c0.5-0.6 3-3 0.9-0.8zm-142-0.9c-2-3 3 3 0 0zm6-4c-0.9-1 1 1 0 0zm45-8c-0.9-1 1 1 0 0zm-26-1c1-0.4 0.3 0.5 0 0zm73-5c-0.9-1 2 2 0 0zm-69-2c1-0.4 0.3 0.5 0 0zm-12-3c1-0.2-0.5 0.5 0 0zm74-2c-2-2 2 2 0 0zm4-7c-2-2 2 2 0 0zm-92-5c-2-3 3 3 0 0zm-2-2c-0.9-1 1 1 0 0zm94-10c2-2 0.4 0.3 0 0zm26-6c2-2-1 2 0 0zm41-2c0.2-1 0.3 1 0 0zm7-0.1c0.2-1 0.2 1 0 0zm-194-0.9c0.2-1 0.3 1 0 0zm37-0.4c0.2-1 0.2 1 0 0zm18-2c0.2-3 0.2 3 0 0zm-26 0.3c0.2-1 0.2 1 0 0zm110-0.9c2-2 0.4 0.3 0 0zm-33-1c0.2-1 0.3 1 0 0zm38-3c3-2-2 2 0 0zm-115-3c0.2-6 0.2 6 0 0zm8 0.9c0.3-2 0.2 2 0 0zm149-1c0.2-1 0.3 1 0 0zm7-0.9c0.2-1 0.2 1 0 0zm-194-0.5c0.2-1 0.2 1 0 0zm9-2c0.3-1 0.2 2 0 0zm142-0.8c3-2-2 2 0 0zm-114-2c0.3-1 0.2 2 0 0zm-8-0.8c0.2-1 0.3 1 0 0zm-20-0.6c0.2-1 0.2 1 0 0zm145-0.4c2-2 0.4 0.3 0 0zm-138-5c-0.7-7 3-16 4-21 2-6 8 8 2 11-3 0.5-7 22-6 9zm112 4c0.2-1 0.3 1 0 0zm-47-0.4c2-2-1 2 0 0zm-51-0.7c0.2-1 0.3 1 0 0zm13-0.04c-0.9-1 1 1 0 0zm41-2c5-5-5 5 0 0zm43 0.8c0.2-1 0.2 1 0 0zm-62-0.4c0.2-1 0.3 1 0 0zm63 0c0.2-1 0.3 1 0 0zm-68-0.6c-2-3 3 3 0 0zm12 0.6c2-2 0.4 0.3 0 0zm-32-2c-0.9-1 1 1 0 0zm115-2c-2-11-6-22-11-32 8-5 11 1 13 8 2 6 5 12 5 17-1 1-7 10-7 6zm-106-0.4c-3-3 3 3 0 0zm40-0.07c2-2-1 2 0 0zm-10-2c6-6-2 3-2 2l0.7-0.7zm-45 2c-0.9-1 2 2 0 0zm13-2c-0.9-1 2 2 0 0zm71-3c0.9-1 0.9-0.2 0 0zm-98-11c2-2 0.4 0.3 0 0zm163-3c0.2-1 0.3 1 0 0zm-11-2c0.2-1 0.3 1 0 0zm0-1c0.2-1 0.3 1 0 0zm-124-2c2-4 3-11 8-10 5-1 13-4 7 4-2 5-11 4-16 7zm56-2c-9-3-19-3-28-3 1-8 7-9 15-7 7 1 19 2 22 6-3 1-6 4-9 4zm-79-0.9c-0.06-2 0.7 1 0 0zm8-1c0.2-1 0.2 1 0 0zm0-3c0.2-1 0.2 1 0 0zm106-10c-8-10-18-20-31-23 10-5 21 0.6 28 8 3 4 12 11 10 14-2-0.1-5 2-7 1zm-111-3c2-2 0.4 0.3 0 0zm139-0.6c-0.9-1 2 2 0 0zm-3-3c-2-2 2 2 0 0zm-122-0.3c2-2 0.4 0.3 0 0zm-10-0.7c2-2-1 2 0 0zm29-0.4c2-2 0.4 0.3 0 0zm26-3c2-2-1 2 0 0zm-22-1c2-2 0.4 0.3 0 0zm25-2c2-2 0.4 0.3 0 0zm-10-2c2-2 0.4 0.3 0 0zm-22-0.3c2-2 0.4 0.3 0 0zm26-4c2-2-1 2 0 0zm-20-0.5c0.7-0.9 0.3 1 0 0zm44-11c1-0.2-0.5 0.5 0 0zm5 0c1-0.2-0.5 0.5 0 0zm-17-2c1-0.2-0.5 0.5 0 0z" fill="#c5af66"/><path d="m111 244c1-0.2-0.5 0.5 0 0zm-4-3c-3-0.3-8-2-9-3-2-0.9-5-3-7-5-3-3-7-6-9-10-2-2-4-5-6-8-1-2-3-4-3-6-0.7-0.5-0.9-2-1-2-1-2-3-4 2-4 3-1 4-0.9 5 0.8 0.9 1 2 5 3 5 1 3 3 5 4 7 3 4 6 9 11 11 2 2 4 3 7 5 2 1 5 3 7 3 2 1 14 3 7 4-3 0.1-6 1-10 0.3zm-20-11c-1-2-2-2 0 0zm54 10c4-4 4-9 8-13 0.8-0.6 6-3 7-5 4-2 8-7 9-8 3-3 5-6 8-9 0.9-2 3-4 4-6 1-2 2-4 3-6 2-3 3-6 4-8 2-6 4-11 5-18 2-8 1-18 0.01-28-0.7-3-2-8-3-12-1-2-2-5-3-8 1-4 2-8 1-12-0.2-3 2 4 4 5 0.8 2 2 4 2 6 0.7 2 2 4 2 6 1 3 2 7 3 10 0.8 7 2 16 1 24-0.3 6-1 11-2 15-1 3-1 7-3 8-0.4 3-2 6-3 9-2 3-3 6-4 8-2 4-4 7-7 11-3 3-6 7-10 10 3-2-4 4-7 6-2 2-5 3-7 5-3 2-5 3-8 4 0.4 0.8-6 3-6 3zm44-129c-0.5 0.3 0.4 1 0 0zm-124 119c-0.9-1 1 1 0 0zm-20-1c-0.9-1 2 2 0 0zm23-5c-3-4 4 3 0 0zm-33-3c-0.9-1 2 2 0 0zm5-4c-0.9-1 1 1 0 0zm-4-6c-2-2 2 2 0 0zm61 0.07c-4-0.7-8-2-11-3-2-0.2-7-4-3-5 4-1 8-1 11 0.3 2 0.8 5 1 7 2 3 1 8 0.7 9 2-4 1-9 3-13 4zm33-10c-0.9-1 1 1 0 0zm45-0.7c0.9-1 0.9-0.2 0 0zm-122-2c5-0.4 1 0.4 0 0zm72-3c-4-4 4 4 0 0zm-67-0.8c-5 0.8-6-1-7-4-0.08-2-2-5-2-7 3 2 5 3 8 5 2 1 5 3 8 4 4 2-7 2-7 2zm125-1c2-2 0.4 0.3 0 0zm-114-0.5c-2-2-2-6-3-10-2-6-3-11-3-18-0.8-5-2-15 3-8 6 2 4 10 5 15 1 4 1 10 3 13-0.5 3 4 7-0.4 8-2 0.1-3 1-5 0.9zm105 0.3c2-2 0.4 0.3 0 0zm-66-2c-0.4-1 1 1 0 0zm0.7-0.3c2-2-0.3 0.8 0 0zm2-1c3-2-0.1 0.5 0.3-4-0.9-4-2-3 0.9-5 2-2 5-3 8-5 4-3 9-7 11-11 2-3 3-5 4-8 2-6 2-14 0.7-21-0.7 3-0.9 10-2 15-1 3-1 6-3 8-2 5-7 8-10 11-3 0.2-3-4-4-7-1-4-2-7-1-12 0.08-4 0.9-7 2-10 1-3 2-5 4-7 4-4 1-1 7-7 2-2 6-3 8-5 3-1 4-2 7-3 4-2 0.8 5 2 9 2 9 5 19 1 27-0.03 3-6 10-0.9 6 4-4 8-7 12-11 4-4 8-9 11-13 1-3 4-5 5-8 3-4 3-7 5-10 0.9-5 1-10-2-13-4-6-14-5-20-4-5 1-9 2-13 4-2 0.3-2 0.8-5 2-3 0.7-6 3-8 3-0.5 0.7-2 0.9-2 1-1 0.7-3 2-5 3-2 1-5 3-5 3-2 1-4 3-7 4-3 2-6 4-9 7-3 3-7 6-9 9-5 5-6 6-10 10-3 4-6-0.3-8-2 3-6 9-10 13-15 3-3 7-6 10-9 3-2 7-5 10-7 2-2 6-4 8-5 2-1 5-3 7-4 2-1 7-3 8-4 2-1 4-1 5-3 3-0.6 6-2 9-3 3-0.8 8-2 13-2 6-0.3 11 0.02 16 2 3 1 6 3 8 6 4 5 4 13 3 20-0.8 0.7-0.9 3-1 4-1 4-3 7-5 10-2 3-4 7-6 9-3 4-8 9-9 10-3 3-4 4-2 2-5 5-3 3-8 8-4 3-7 6-10 8-3 2-6 4-8 6-2 2-4 2-6 4-2 0.9-4 2-6 3-2 1-4 0.8-5 3-2-1-0.3 0.7-2 1-1-0.1-4 2-5 2zm4-9c-2-1 0.7 1 0 0zm40-19c0.9-1-1 1 0 0zm6-18c0.9-1-1 1 0 0zm-70-17c0.9-1-2 2 0 0zm40 62c-1-1 2 1 0 0zm-104-2c-0.9-1 1 1 0 0zm102-0.7c-2-2 2 2 0 0zm-89-2c-4-4-5-4-9-8-2-3-5-6-7-9-2-2-2-4-4-7-1-4-4-10-3-15-0.6-3 0.8-10 2-14 0.8-3 2-6 4-9 2-3 6-8 3-0.9-2 8-3 15-2 23 0.6 2 1 5 2 7 1 0.8 1 5 3 6 0.08 2 2 4 3 6 2 2 4 5 6 8 2 4 1 9 3 13l-0.5 0.2-0.6-0.2zm68-2c2-0.7 2 1 0 0zm16-11c3-2-2 2 0 0zm-52-8c0.2-1 0.3 1 0 0zm-8-2c0.2-1 0.2 1 0 0zm131-0.2c0.2-1 0.3 1 0 0zm-124-7c0.7-0.5 1 0.9 0 0zm124-0.2c0.2-1 0.3 1 0 0zm-150-2c0.3-1 0.2 2 0 0zm0-3c0.3-1 0.2 2 0 0zm-28-6c0.2-1 0.2 1 0 0zm55-2c-5-4-10-10-6-16 0.2-5 2-8 2-13 1-2 2-6 3-8 2-4 3-8 6-13 2-2 3-4 4-6 4-5 7-10 12-14 3-3 6-5 10-7 1-0.5 3-1 5-2 6-2 10-2 16-1 4 0.6 8 1 10 2 2 0.6 5 2 7 2 2 1 6 3 8 4 2 0.8 3 2 5 3 2 1 5 3 7 5 3 3 6 5 10 8 2 2 2 2 5 5-4-2-7-2-12-2-3-3-7-6-10-7-2-2-4-2-6-4-3-2-4-2-7-4-2 7e-4 -3-2-5-3-6-4-15-5-22-2-1 1-4 2-5 2-0.9 0.5-2 1-4 2-4 2-7 5-10 9-2 2-4 5-7 8-1 3-3 6-5 8-1 4-3 6-4 9-2 3-2 5-3 7-0.3 4-2 5-2 10-1 4-1 9-2 14-0.6 1 0.7 4-0.5 5zm18-68c4-5-5 5 0 0zm-33 61c-0.9-1 2 2 0 0zm-33-2c0.2-1 0.3 1 0 0zm30-0.6c-2-3 3 3 0 0zm134-5c0.2-1 0.3 1 0 0zm-165-10c1-2-0.7 2 0 0zm121-1c0.2-1 0.3 1 0 0zm-115-2c0.5-1 0.4 1 0 0zm28-17c0.5-1 0.4 1 0 0zm109-6c1-0.2-0.5 0.5 0 0zm-102-4c2-2 0.4 0.3 0 0zm-27-2c5-5-5 5 0 0zm3-2c2-2 0.4 0.3 0 0zm31-4c2-2-1 2 0 0zm-8-1c2-2-1 2 0 0zm4-4c2-2 0.4 0.3 0 0zm-11-4c0.7-0.5 1 0.9 0 0zm64-12c2-0.4 0.3 0.4 0 0z" fill="#4e7244"/><path d="m94 250c-37-3-71-28-84-63-15-36-2-80 27-105 6-5 12-9 18-13 14-7 29-12 45-11-19 9-37 21-48 40-4 4-6 18-9 18-9-10 3-22 9-31 3-5 13-12 14-14-12 5-26 13-32 26-4 14 7 27 16 37 7 6 13 12 21 16 12 9 25 16 37 25-8 9-16-3-23-7-20-14-43-26-55-48-3-3-3-16-5-14-15 21-21 50-10 74 7 15 25 20 40 18 23-2 46-12 64-26-3 6-15 7-15 13 2 5-0.7 5 4 4 3-3 7-3 12-6 22-13 41-30 54-52 6-10 8-25-2-33-6-5 7 4 6 8 4 15-5 29-14 40-25 31-63 52-102 59-6 1-18-0.6-10 8 13 21 38 36 62 32 11-2 22-11 19-23-2-13-13-23-22-32 9-9 16 7 22 13 8 11 11 28 0.8 38-12 11-29 10-44 10zm-26-13c-11-8-19-19-25-31-7-0.07-16-5-20-6 9 16 24 28 41 36-0.06-0.09 5 2 3 0.9zm-26-7c-3-3-0.1 0.5 0 0zm-5-12c-2-2-0.4 0.3 0 0zm90-16c-2-2-0.4 0.3 0 0zm-22-11c-1 0.2-1 1 0 0zm1-1c-3-0.03 0.6 2 0 0zm19 0.5c-2-2 0.9 1 0 0zm-21-7c-2-0.7-2 0.7 0 0zm0.6-0.3c-2-2 0.7 1 0 0zm-39-28c-1-0.9-0.7 0.5 0 0zm-16-21c-1-2-2-2 0 0zm-32-16c0.6-2-1 2 0 0zm34-20c-0.3-1-0.5 1 0 0zm7-10c0.9-1-2 2 0 0zm-24-4c0.9-1-2 2 0 0zm31-3c1-2-2 2 0 0zm-8-1c1-2-2 2 0 0zm4-4c0.9-1-2 2 0 0zm46 166c4-0.2 4 0.3 0 0zm-4-0.3c-2-0.8 5 0.8 0 0zm9 0.2c4-0.7 3 0.3 0 0zm-12-1c-15-6-26-21-32-35 0.9 0.03 5 12 10 16 6 8 14 16 25 20l-0.8-0.2zm39 0.02c4-1-1 1 0 0zm-22-0.4c-14-2-27-11-35-23-2-3-10-15-8-13 7 14 18 29 34 34 0.7 0.9 14 3 8 2zm23-8e-4c1-0.8-0.6 0.8 0 0zm1-0.6c3-2 13-7 5-2-2 0.8-3 2-5 2zm-1-0.8c1-3 3-3 0 0zm2-3c2-3-1 3 0 0zm9-0.9c15-10 28-24 36-40-8 17-21 31-36 40zm-7-2c3-5-2 5 0 0zm0.9-2c0.5-2 1-1 0 0zm0.8-2c0.9-2 0.8 0.4 0 0zm5-4c10-6 17-15 24-24-7 11-17 20-28 27 1-1 2-2 4-3zm-58-15c3 0.3 20-6 8-2-3 0.6-5 2-8 2zm-5-0.9c-8-3 9 2 0 0zm-5-2c-7-3 8 3 0 0zm-3-1c-0.4-1 1 1 0 0zm27-0.02c1-0.8 2 0.4 0 0zm-28-0.8c-3-3 1-4-0.5-1-0.4-0.5 2 3 0.5 1zm27 0.4c1-0.4 0.3 0.5 0 0zm-2-0.3c2-0.4 0.5 0.4 0 0zm-3-0.4c-5-1 6 0.9 0 0zm-2-0.7c1-0.2-0.5 0.5 0 0zm-2-0.4c-0.4-0.6 5 1 0 0zm-24-0.4c7-1-5 1 0 0zm22-0.1c-0.8-0.9 3 0.9 0 0zm-5-1c-4-2-10 0.08-3-1 4 1 12 4 3 1zm-8-0.04c1-0.2-0.5 0.5 0 0zm96-3c2-4 5-7 1-1 0.4-0.04-2 4-1 1zm-131-6c-7 2-7-7-8-11-5-17-6-35-3-52 4 3 8 7 6 12-0.9 17 1 35 7 51l-0.7 0.06-2-0.1zm4-0.6c-2-4-4-10-0.8-3-0.6 6 14 1 3 3-0.4 1e-3 -2 0.4-3-0.7zm9 9e-3c3-0.4 0.6 0.4 0 0zm122 0.1c0.7-2 1-1 0 0zm-119-0.4c2-0.4 0.5 0.4 0 0zm2-0.2c2-0.8 2 0.4 0 0zm126-0.2c2-4 6-18 6-15-2 5-3 11-6 15zm-124-0.3c0.8-0.8 1 1 0 0zm-4-1c-5-3-15-9-15-7-0.1-4 12 7 16 8 4 2-0.9-0.2-2-0.5zm6 1c1-0.4 0.3 0.5 0 0zm2-0.4c4-0.7-2 0.7 0 0zm-4-2c-4-12-5-24-6-36 1 7 0.9 18 3 26 0.06 2 4 16 2 11zm6 2c1-0.2-0.5 0.5 0 0zm2-0.5c3-1-2 1 0 0zm110-0.9c0.5-1 0.4 1 0 0zm-110-0.6c-1-5-2-8-0.06-1l0.2 1-0.1 0.07zm111-0.3c3-6 5-14 7-20-1 7-3 14-7 20zm-148-5c-11-10-21-23-22-39 1 16 12 30 24 40l-0.6-0.4zm1 0.2c0.2-1 0.3 1 0 0zm-0.6-2c-1-4 0.5-0.2 0.5 2zm35 1c-2-7-3-20-4-24 2 8 2 16 4 23l0.05 0.8-0.2-5e-3zm39-2c-0.7-1 2 1 0 0zm-75-2c0.2-1 0.3 1 0 0zm-0.4-2c-0.4-5 0.9 4 0 0zm161-2c0.7-5 2-9 0.6-2-0.2-0.3-0.3 3-0.6 2zm-161-0.4c-0.8-4 0.5 0.5 0 0zm-1-3c-6-7-12-16-13-26 0.8 9 10 23 13 26zm90-2c3-3 8-14 4-5 0.2 0.7-6 8-4 5zm-9-2c-3-6 4 5 0 0zm76 1c0.2-1 0.2 1 0 0zm-74-0.5c3-2 12-14 5-5-0.5 0.7-6 6-5 5zm81-2c0.4-8 0.7-3-0.07 1zm-7-0.5c1-15-0.4-30-6-44 6 14 7 30 6 46l0.09-1zm-78-1c-0.7-2 1 1 0 0zm-0.7-2c-2-7-0.9-5 0.4 0.7l-0.4-0.7zm26-3c2-2-0.8 2 0 0zm1 0.2c9-8 17-16 25-25-7 9-15 18-25 25zm-10-0.6c2-8 1-1 0 0zm69-6c0.5-7-3-22-3-24 2 10 3 20 3 30-0.2-2-0.2-4-0.3-6zm-58 4c3-5-2 4 0 0zm-74 0.9c-5-3 0.4-0.8 0-4e-5zm60-2c3-6-3 6 0 0zm-16-2c-0.7-4 2-15 0.3-5-0.4 2 0.4 13-0.3 5zm-48 1c-4-3 3 2 0 0zm69-0.5c0.3-4 1-3 0 0zm10-0.3c3-4 2-22 2-8-0.3 2-1 7-2 8zm-14-1c0.2-1 0.9-0.4 0 0zm0.5-1c0.8-4 1-2 0 0zm4-2c0.3-2 0.6-15 0.5-7 0.09 1-0.4 10-0.5 7zm-3-2c0.2-1 0.3 1 0 0zm-53-2c-11-5 6-13 10-19 13-12 28-22 45-29-23 10-44 25-59 45 4 6 8 4 12-2-2 1-4 8-7 5zm53 0.6c0.7-4 0.5 0.8 0 0zm0.5-3c0.3-1 0.2 2 0 0zm-110-1c0.2-2 0.2 3 0 0zm-7-0.9c0.2-5 0.7-2 0.07 1zm117 0.7c0.3-1 0.2 2 0 0zm-19-0.9c0.3-4 0.6 0.5 0 0zm19-0.7c0.3-1 0.2 2 0 0zm-110-2c-0.1-8 0.9-17 5-24-0.8 2-6 15-5 21-0.08 0.2-0.07 7-0.3 3zm44-2c-4-3-5-6-0.7-1 4 3 6 6 0.7 1zm19 3c3-4 16-15 6-6-2 2-4 4-6 6zm28-0.07c3-7 2-4 0 0zm19-2c0.2-2 0.2 3 0 0zm-62-2c1-13-0.2 7 0 0zm63 1c0.3-2 0.2 2 0 0zm11-1c-0.9-7 1 6 0 0zm-129 0.6c0.4-5 5-17 2-6-0.4 0.1-2 8-2 6zm117-1c0.3-1 0.2 2 0 0zm-17-0.8c6-9 15-15 25-19-10 4-20 10-26 20zm50-2c6-9-2 3 0 0zm-23-0.2c-0.4-4 0.9 3 0 0zm-81-2c0.3-2 0.2 2 0 0zm81-0.02c0.2-1 0.3 1 0 0zm-72-2c3-23 12-47 33-60 4-3 7-3 0.9-0.3-21 12-30 37-34 60zm72 0.7c0.2-1 0.3 1 0 0zm-80-0.6c0.3-5 2-13 0.8-4-0.2 0.2-0.5 5-0.8 4zm35-0.4c11-9 23-17 36-23-13 6-25 14-36 23zm73-0.9c4-6-2 5 0 0zm-28-0.5c-0.9-6 1 6 0 0zm53-2c-1-6 2 5 0 0zm-23-2c3-5 4-15 3-17 2 6-2 16-4 19l0.9-2zm-31 0.8c0.2-2 0.2 2 0 0zm-122-0.2c2-4 5-8 2-2 0.07-0.6-2 5-2 2zm175-2c-1-4-7-17-2-7 0.4 0.8 4 11 2 7zm-53-2c0.2-5 0.2 5 0 0zm-78-1c0.2-1 0.2 1 0 0zm122 0.1c0.2-1 0.3 1 0 0zm0.3-0.8c0.6-4 2-5 0 0zm-122-0.4c0.7-4 0.5 0.8 0 0zm78-2c0.2-2 0.2 2 0 0zm-77-0.4c0.5-4 6-19 3-8-0.9 2-2 9-3 8zm122-3c0.2-3 0.2 3 0 0zm0.2-3c0.2-1 0.2 1 0 0zm-0.06-0.9c-0.7-3 0.5-2 0 4e-5zm1-0.4c-1-2 1 2 0 0zm-56-3c3-2 5-2 0 0zm42-1c-3-6-11-6-18-6 7-0.3 15-0.4 18 7zm-38-0.2c3-2 15-5 6-2-2 0.5-4 2-6 2zm-67-3c6-15 15-29 29-38-14 9-23 23-29 38zm79-2c5-2 12-2 3-0.4-0.05-0.2-6 2-3 0.4zm-15-3c4-2 17-5 17-5-5 0.8-15 5-17 5zm39-4c-0.4-1 1 1 0 0zm-2-0.7c-2-1 4 1 0 0zm-3-0.8c-3-1 5 2 0 0zm-13-0.8c4-0.9 16 0.7 6 0.04-1-0.4-12 0.9-6-0.04zm17-2c-6-7-14-14-22-18-8-5-17-9-26-11 19 4 36 15 48 30l-0.3-0.3zm-5-1c-5 2-17-8-8-1 1 0.8 15 2 8 1zm-13-5c-4-3-12-8-3-3 0.3-0.08 6 5 3 3zm-11-7c-9-5-0.5-1 2 1l-0.9-0.5zm-7-4c-7-7-20-8-26-5 9-5 20-0.8 27 5l-1-0.3zm-38-8c3-2 11-5 3-1-1 0.3-2 1-3 1zm9-4c5-1-3 1 0 0zm14-0.4c-4-0.6-18 0.3-7-0.5 1-0.4 12 0.9 7 0.5z" fill="#554a2c"/></g></svg>